<?xml version="1.0" encoding="iso-8859-1"?>
<!-- Generator: Adobe Illustrator 19.0.0, SVG Export Plug-In . SVG Version: 6.00 Build 0)  -->
<svg xmlns="http://www.w3.org/2000/svg" xmlns:xlink="http://www.w3.org/1999/xlink" version="1.1" id="Capa_1" x="0px" y="0px" viewBox="0 0 512 512" style="enable-background:new 0 0 512 512;" xml:space="preserve" width="512px" height="512px">
<g>
	<g>
		<path d="M256,181c-41.353,0-75,33.647-75,75c0,41.353,33.647,75,75,75c41.353,0,75-33.647,75-75C331,214.647,297.353,181,256,181z    " fill="#006DF0"/>
	</g>
</g>
<g>
	<g>
		<path d="M256,0c-24.814,0-45,21.186-45,46c0,19.53,12.578,36.024,30,42.237v64.279c4.942-0.716,9.864-1.516,15-1.516    s10.058,0.8,15,1.516V88.237C288.422,82.024,301,65.53,301,46C301,21.186,280.814,0,256,0z" fill="#006DF0"/>
	</g>
</g>
<g>
	<g>
		<path d="M271,423.763v-64.279c-4.942,0.716-9.864,1.516-15,1.516s-10.058-0.8-15-1.516v64.279c-17.422,6.213-30,22.707-30,42.237    c0,24.814,20.186,46,45,46c24.814,0,45-21.186,45-46C301,446.47,288.422,429.976,271,423.763z" fill="#006DF0"/>
	</g>
</g>
<g>
	<g>
		<path d="M147.785,126.574c7.881-16.696,5.33-37.092-8.459-50.881c-17.549-17.549-46.084-17.549-63.633,0    c-17.549,17.549-17.549,46.084,0,63.633c12.489,12.489,31.607,17.546,50.881,8.459l45.626,45.626    c6.037-8.057,13.154-15.174,21.211-21.211L147.785,126.574z" fill="#006DF0"/>
	</g>
</g>
<g>
	<g>
		<path d="M436.308,372.675c-13.79-13.79-34.186-16.34-50.881-8.459L339.8,318.589c-6.037,8.057-13.154,15.174-21.211,21.211    l45.626,45.626c-7.879,16.696-5.328,37.094,8.46,50.882c17.549,17.549,46.084,17.549,63.633,0S453.857,390.224,436.308,372.675z" fill="#006DF0"/>
	</g>
</g>
<g>
	<g>
		<path d="M152.516,241H88.237C82.024,223.578,65.53,211,46,211c-24.814,0-46,20.186-46,45c0,24.814,21.186,45,46,45    c19.53,0,36.024-12.578,42.237-30h64.279c-0.716-4.942-1.516-9.864-1.516-15S151.8,245.942,152.516,241z" fill="#006DF0"/>
	</g>
</g>
<g>
	<g>
		<path d="M466,211c-19.53,0-36.024,12.578-42.237,30h-64.279c0.716,4.942,1.516,9.864,1.516,15s-0.8,10.058-1.516,15h64.279    c6.213,17.422,22.707,30,42.237,30c24.814,0,46-20.186,46-45C512,231.186,490.814,211,466,211z" fill="#006DF0"/>
	</g>
</g>
<g>
	<g>
		<path d="M436.307,75.693c-17.549-17.549-46.084-17.549-63.633,0c-13.79,13.79-16.34,34.186-8.459,50.881L318.589,172.2    c8.057,6.037,15.174,13.154,21.211,21.211l45.626-45.626c19.274,9.088,38.392,4.03,50.881-8.459    C453.856,121.777,453.856,93.242,436.307,75.693z" fill="#006DF0"/>
	</g>
</g>
<g>
	<g>
		<path d="M193.411,339.8c-8.057-6.037-15.174-13.154-21.211-21.211l-45.626,45.626c-16.696-7.879-37.094-5.328-50.881,8.459    c-17.549,17.549-17.549,46.084,0,63.633s46.084,17.549,63.633,0c13.788-13.788,16.339-34.186,8.459-50.881L193.411,339.8z" fill="#006DF0"/>
	</g>
</g>
<g>
</g>
<g>
</g>
<g>
</g>
<g>
</g>
<g>
</g>
<g>
</g>
<g>
</g>
<g>
</g>
<g>
</g>
<g>
</g>
<g>
</g>
<g>
</g>
<g>
</g>
<g>
</g>
<g>
</g>
</svg>
