<?xml version="1.0" encoding="iso-8859-1"?>
<!-- Generator: Adobe Illustrator 19.0.0, SVG Export Plug-In . SVG Version: 6.00 Build 0)  -->
<svg xmlns="http://www.w3.org/2000/svg" xmlns:xlink="http://www.w3.org/1999/xlink" version="1.1" id="Capa_1" x="0px" y="0px" viewBox="0 0 511.998 511.998" style="enable-background:new 0 0 511.998 511.998;" xml:space="preserve" width="512px" height="512px">
<g>
	<g>
		<path d="M343.358,287.933c-22.936-11.211-62.343-16.898-87.506-16.898c-25.149,0-64.527,5.687-87.462,16.898    c-15.844,7.748-22.55,28.513-9.291,45.153c8.846,11.103,23.809,14.441,36.492,8.324c13.937-6.712,44.611-10.244,60.306-10.244    c15.695,0,46.354,3.547,60.248,10.23c13.303,6.368,28.143,2.162,37.239-9.218C364.993,317.61,360.097,296.103,343.358,287.933z" fill="#006DF0"/>
	</g>
</g>
<g>
	<g>
		<path d="M421.587,194.257c-44.904-28.094-112.025-42.955-165.721-42.955c-53.682,0-120.788,14.861-165.691,42.955    c-13.986,8.749-19.211,27.794-6.199,44.2c9.276,11.781,25.691,14.432,38.192,6.624c0.044-0.029,0.103-0.059,0.146-0.088    l0.146-0.088c35.333-21.983,91.287-33.589,133.42-33.589c42.25,0,98.307,11.665,133.7,33.766    c12.723,7.91,29.118,4.889,39.422-8.134C439.712,223.384,436.299,203.458,421.587,194.257z" fill="#006DF0"/>
	</g>
</g>
<g>
	<g>
		<path d="M499.162,100.36c-67.486-45.532-162.678-69.611-243.281-69.611S80.33,54.827,12.829,100.361    c-13.563,9.179-17.993,27.927-5.305,43.731c9.538,11.904,26.799,14.102,38.968,5.877c0.044-0.029,0.103-0.073,0.146-0.103    l0.146-0.088c56.51-38.163,139.689-58.328,209.067-58.328c69.51,0,153.08,20.238,209.649,58.518    c12.437,8.394,29.659,5.789,40.125-7.313C516.177,129.539,513.354,109.944,499.162,100.36z" fill="#006DF0"/>
	</g>
</g>
<g>
	<g>
		<path d="M255.881,361.194c-33.106,0-60.028,26.921-60.028,60.028s26.921,60.028,60.028,60.028s60.028-26.921,60.028-60.028    S288.987,361.194,255.881,361.194z" fill="#006DF0"/>
	</g>
</g>
<g>
</g>
<g>
</g>
<g>
</g>
<g>
</g>
<g>
</g>
<g>
</g>
<g>
</g>
<g>
</g>
<g>
</g>
<g>
</g>
<g>
</g>
<g>
</g>
<g>
</g>
<g>
</g>
<g>
</g>
</svg>
